<svg width="24" height="24" version="1.1" viewBox="0 0 24 24" xmlns="http://www.w3.org/2000/svg">
  <path     
     d="M 23,2.0000088 V 8.285 H 16.714285 V 2.0000088 Z M 15.142861,2 V 8.2849912 H 8.8571459 V 2 Z M 7.2857148,2 V 8.2849912 H 1 V 2 Z M 20.145763,3.3371842 c -0.282835,0 -0.538193,0.042037 -0.766072,0.1260061 -0.227922,0.084064 -0.423413,0.205222 -0.586384,0.3634817 -0.163079,0.1583465 -0.287811,0.3481847 -0.374304,0.5694682 -0.08656,0.2213496 -0.129796,0.4693457 -0.129796,0.7439214 0,0.2811002 0.04162,0.5339621 0.124797,0.758476 0.08314,0.2246018 0.202911,0.4143729 0.359334,0.5694682 0.156357,0.1550734 0.347634,0.2738344 0.573921,0.3562149 0.22622,0.082381 0.480748,0.1235841 0.763561,0.1235841 0.212886,0 0.415883,-0.023483 0.608886,-0.070294 0.192914,-0.046789 0.362585,-0.1106209 0.509032,-0.1914087 v 0 V 6.01243 c -0.30944,0.1906884 -0.647143,0.2859451 -1.01309,0.2859451 -0.239578,0 -0.443383,-0.045216 -0.611373,-0.1356946 -0.168034,-0.090432 -0.29615,-0.222114 -0.384259,-0.3949942 -0.08822,-0.1728155 -0.132262,-0.3820324 -0.132262,-0.6276263 0,-0.2454863 0.04568,-0.4538948 0.137217,-0.6251824 0.0915,-0.1712228 0.22288,-0.3020725 0.394276,-0.3925503 0.171307,-0.090432 0.378453,-0.1357166 0.621347,-0.1357166 0.176306,0 0.344362,0.02346 0.504036,0.070271 0.159718,0.046877 0.307716,0.1155516 0.44419,0.2059644 v 0 -0.6881853 c -0.149722,-0.077541 -0.311928,-0.136458 -0.486597,-0.176896 -0.174668,-0.040354 -0.360185,-0.060581 -0.55646,-0.060581 z m -8.19384,0.03766 h -1.32692 v 3.5353077 h 1.408656 c 0.278841,0 0.51759,-0.041179 0.716332,-0.1236037 0.19872,-0.082359 0.351738,-0.199417 0.459141,-0.3510643 0.107338,-0.1515823 0.161049,-0.3329085 0.161049,-0.5438917 0,-0.2142355 -0.05526,-0.3963482 -0.16583,-0.5463809 -0.11061,-0.1499447 -0.270067,-0.2595833 -0.478389,-0.3288049 0.150616,-0.072449 0.264435,-0.1705892 0.341348,-0.2941942 0.07693,-0.1236049 0.115391,-0.2694689 0.115391,-0.4375934 0,-0.2933427 -0.107404,-0.5183153 -0.3221,-0.6749164 C 12.645818,3.453189 12.342925,3.374844 11.951923,3.3748442 Z m -7.857146,0 H 2.7678579 v 3.5353077 h 1.4086552 c 0.2788414,0 0.5175677,-0.041179 0.7163535,-0.1236037 C 5.0915433,6.7041893 5.244583,6.5871309 5.3519858,6.4354836 5.4593447,6.2839014 5.5130572,6.1025751 5.5130572,5.8915919 5.5130572,5.6773564 5.4577734,5.4952438 5.3471843,5.3452111 5.2366168,5.1952664 5.0771383,5.0856278 4.8688151,5.0164061 5.0194322,4.9439574 5.1332298,4.8458169 5.2101643,4.722212 5.2870994,4.598607 5.3255553,4.452743 5.3255553,4.2846185 5.3255553,3.9912758 5.2181304,3.7663032 5.003434,3.6097022 4.788672,3.4531868 4.4857791,3.3748418 4.094777,3.3748418 Z m 7.881178,2.0074538 c 0.439062,0 0.658669,0.1615549 0.658669,0.4845767 0,0.1516472 -0.05773,0.2678324 -0.173076,0.3485774 -0.115391,0.080808 -0.2805,0.1211389 -0.495196,0.1211389 v 0 H 11.34136 V 5.3822977 Z m -7.8571461,0 c 0.4390835,0 0.658669,0.1615549 0.658669,0.4845767 0,0.1516472 -0.057706,0.2678324 -0.1730756,0.3485774 -0.1153907,0.080808 -0.2805,0.1211389 -0.4951966,0.1211389 v 0 H 3.4842135 V 5.3822977 Z M 11.884613,3.9484049 c 0.381377,0 0.572131,0.1401458 0.572131,0.4202648 0,0.1451008 -0.04888,0.2579687 -0.146644,0.3387138 -0.0978,0.080808 -0.239622,0.1211379 -0.425487,0.1211379 v 0 H 11.341357 V 3.9484049 Z m -7.8571456,0 c 0.3813772,0 0.5721312,0.1401458 0.5721312,0.4202648 0,0.1451008 -0.04891,0.2579687 -0.1466448,0.3387138 -0.0978,0.080808 -0.2396211,0.1211379 -0.4254864,0.1211379 v 0 H 3.4842114 V 3.9484049 Z"
     id="path8590" fill="#000"/>
  <g
     transform="matrix(0.94681968,0,0,0.94681968,3.9878587,1.1699668)"
     id="g12413">
    <rect
       x="8.7256937"
       style="fill:#fa6407;stroke-width:0.11447529"
       width="6.1986299"
       height="12.373"
       id="rect6"
       y="9.6269999" />
    <rect
       x="4.7076268"
       style="fill:#d24717;stroke-width:0.11447529"
       width="3.0125699"
       height="8.792922"
       id="rect6-9"
       y="11.417036" />
    <rect
       x="2"
       style="fill:#a13208;stroke-width:0.11447529"
       width="1.6812191"
       height="3.4817319"
       id="rect6-9-1"
       y="14.072635" />
  </g>
</svg>
